<?xml version="1.0" standalone="no"?>
<!DOCTYPE svg PUBLIC "-//W3C//DTD SVG 20010904//EN"
 "http://www.w3.org/TR/2001/REC-SVG-20010904/DTD/svg10.dtd">
<svg version="1.0" xmlns="http://www.w3.org/2000/svg"
 width="337.000000pt" height="320.000000pt" viewBox="0 0 337.000000 320.000000"
 preserveAspectRatio="xMidYMid meet">

<g transform="translate(0.000000,320.000000) scale(0.100000,-0.100000)"
fill="#000000" stroke="none">
<path d="M1391 3051 c-18 -41 -64 -81 -168 -145 -218 -134 -284 -198 -314
-306 -9 -32 -27 -59 -61 -91 -27 -25 -46 -39 -42 -30 19 46 34 122 34 172 0
69 -19 221 -30 232 -4 5 -13 -29 -19 -75 -17 -115 -33 -169 -91 -292 -62 -133
-82 -200 -74 -243 5 -26 1 -42 -20 -73 -14 -22 -28 -40 -30 -40 -1 0 0 21 5
48 10 70 11 332 1 332 -15 0 -60 -134 -88 -265 -12 -55 -18 -133 -20 -250 -3
-214 -3 -218 -19 -117 -9 56 -25 108 -49 156 -38 77 -89 149 -103 144 -4 -2
-7 -6 -6 -10 2 -4 10 -80 19 -170 21 -218 43 -300 104 -388 13 -20 19 -55 23
-160 10 -245 72 -449 200 -656 263 -424 766 -676 1252 -625 111 12 289 51 348
76 50 22 16 17 -80 -10 -250 -73 -531 -73 -772 0 -327 99 -642 367 -799 681
-96 191 -155 480 -137 667 l7 72 123 122 c136 134 174 184 199 256 16 49 22
147 8 147 -4 0 -18 -20 -31 -45 -13 -25 -67 -91 -121 -147 -53 -57 -108 -121
-123 -143 -37 -54 -34 -27 9 96 65 187 70 192 231 255 50 19 113 49 140 66 71
45 196 159 185 170 -11 11 -168 -43 -232 -79 -25 -14 -73 -46 -108 -70 -35
-24 -60 -38 -56 -31 19 33 113 155 130 169 42 37 114 52 264 55 213 4 255 11
335 49 67 32 135 88 122 101 -3 3 -20 -4 -36 -15 -41 -30 -107 -39 -284 -40
-138 0 -191 -4 -242 -18 -11 -3 0 10 25 29 379 290 934 337 1373 118 247 -124
470 -348 596 -598 97 -193 135 -360 136 -597 0 -227 -32 -373 -125 -573 -21
-45 -35 -82 -31 -82 13 0 77 141 109 240 49 149 65 256 65 420 0 169 -19 286
-70 435 -74 214 -202 409 -362 553 -112 101 -186 151 -320 218 -211 104 -381
139 -639 131 -143 -4 -184 -9 -284 -35 -122 -32 -316 -118 -418 -186 -46 -30
-50 -32 -24 -8 16 16 74 55 128 87 130 77 207 150 245 228 33 69 46 117 32
117 -5 0 -14 -13 -20 -29z m-51 -126 c-38 -55 -116 -119 -225 -183 -44 -26
-104 -66 -132 -90 -29 -23 -53 -40 -53 -37 0 3 9 23 19 43 28 54 95 113 234
202 67 43 136 90 152 103 41 35 43 17 5 -38z m-522 -278 c-5 -132 -22 -176
-114 -302 -59 -79 -59 -80 -62 -48 -3 32 18 90 103 281 20 46 42 113 48 148
17 97 30 54 25 -79z m622 -62 c-7 -8 -42 -25 -79 -36 -53 -17 -104 -23 -256
-29 -104 -4 -201 -11 -215 -14 -24 -7 -25 -7 -5 9 32 27 88 53 129 60 21 4
124 11 229 15 106 4 196 8 201 8 5 1 3 -5 -4 -13z m-884 -425 c-9 -41 -27
-106 -41 -145 l-25 -70 4 140 c5 138 19 227 53 335 l18 55 3 -120 c2 -79 -3
-146 -12 -195z m453 244 c-61 -64 -151 -120 -268 -167 l-114 -46 34 35 c54 56
189 143 280 180 46 18 88 34 93 34 6 0 -6 -16 -25 -36z m-636 -306 c55 -88 82
-223 71 -362 l-7 -89 -18 24 c-46 60 -74 184 -94 424 -6 79 -6 79 12 55 11
-14 27 -37 36 -52z m382 -66 c-20 -44 -54 -85 -151 -180 -114 -112 -125 -120
-119 -90 13 63 60 132 167 245 59 63 110 124 115 136 7 19 8 17 11 -16 2 -25
-6 -57 -23 -95z"/>
<path d="M1760 2471 c0 -34 4 -61 10 -61 6 0 10 9 10 20 0 11 4 20 10 20 5 0
15 -9 22 -20 7 -11 19 -20 27 -20 11 0 10 4 -2 24 -11 16 -12 27 -6 33 6 6 9
21 7 34 -2 20 -10 25 -40 27 l-38 3 0 -60z m56 28 c3 -6 0 -15 -7 -20 -22 -14
-29 -11 -29 11 0 21 24 27 36 9z"/>
<path d="M1952 2508 c-20 -26 -53 -100 -47 -106 4 -4 12 0 18 8 16 20 58 13
64 -11 3 -10 10 -19 15 -19 10 0 5 60 -9 118 -6 24 -25 29 -41 10z m28 -43 c0
-16 -6 -25 -15 -25 -16 0 -19 9 -9 34 9 25 24 19 24 -9z"/>
<path d="M1524 2493 c-6 -5 -14 -36 -17 -70 -6 -52 -4 -63 8 -63 8 0 15 8 15
19 0 26 41 36 57 14 7 -9 16 -13 20 -10 15 16 -65 122 -83 110z m36 -65 c0 -4
-7 -8 -15 -8 -10 0 -15 10 -15 28 1 26 1 26 15 8 8 -11 15 -23 15 -28z"/>
<path d="M2085 2425 c-22 -67 -13 -84 14 -24 l20 44 0 -52 c1 -29 5 -53 10
-53 5 0 21 16 36 36 33 43 41 39 20 -11 -15 -37 -13 -58 3 -39 5 5 18 32 29
61 19 47 20 52 5 58 -12 4 -26 -5 -45 -29 -16 -20 -32 -36 -35 -36 -4 0 -5 22
-4 50 3 44 2 50 -15 50 -14 0 -24 -14 -38 -55z"/>
<path d="M1386 2441 c-8 -13 37 -110 52 -111 16 0 16 -2 -13 64 -25 57 -30 63
-39 47z"/>
<path d="M1272 2384 c-44 -30 -17 -114 37 -114 26 0 51 16 51 32 0 5 -8 3 -19
-3 -24 -16 -48 -6 -63 27 -11 23 -10 28 10 44 37 31 24 42 -16 14z"/>
<path d="M2292 2339 c-29 -22 -50 -45 -46 -50 4 -6 11 -6 19 1 19 15 55 -4 55
-30 0 -44 19 -25 33 33 23 89 9 99 -61 46z m50 -14 c-4 -24 -21 -33 -35 -18
-7 7 21 43 33 43 4 0 5 -11 2 -25z"/>
<path d="M1137 2344 c-4 -4 -7 -14 -7 -23 0 -11 3 -12 11 -4 6 6 10 16 7 23
-2 6 -7 8 -11 4z"/>
<path d="M1150 2291 c0 -15 64 -90 78 -90 19 -1 15 7 -24 55 -35 42 -54 55
-54 35z"/>
<path d="M2421 2243 l-40 -48 26 -27 c14 -15 30 -25 35 -22 5 4 0 16 -11 28
l-21 22 26 25 c33 31 47 56 35 63 -5 4 -28 -15 -50 -41z"/>
<path d="M1052 2207 c-31 -32 -34 -60 -5 -35 11 9 22 3 52 -26 28 -27 41 -34
47 -25 5 8 -6 23 -29 43 -28 24 -35 36 -31 54 8 29 4 28 -34 -11z"/>
<path d="M2550 2158 c-14 -11 -36 -29 -48 -39 -13 -10 -21 -23 -17 -29 5 -8
13 -6 26 6 18 16 20 16 39 -1 l20 -18 -22 -24 c-37 -39 -11 -38 42 3 32 24 46
42 40 48 -6 6 -15 4 -25 -4 -13 -11 -19 -10 -36 6 l-21 19 23 18 c13 10 19 21
13 27 -5 5 -19 0 -34 -12z"/>
<path d="M954 2085 c-9 -14 -15 -27 -13 -29 19 -16 93 -66 98 -66 4 0 15 14
24 30 19 32 14 39 -12 16 -23 -21 -50 -4 -31 18 7 9 10 20 6 24 -4 4 -14 -2
-22 -12 -20 -28 -41 -7 -25 23 17 30 -5 27 -25 -4z"/>
<path d="M1753 2035 c-73 -20 -121 -46 -179 -97 -27 -24 -66 -52 -87 -62 -112
-58 -180 -225 -126 -312 20 -33 20 -35 3 -86 -28 -85 -79 -190 -113 -232 -34
-42 -40 -86 -16 -106 11 -9 36 -11 82 -7 59 4 70 9 92 35 24 29 29 30 79 25
45 -5 52 -8 52 -27 0 -12 6 -29 13 -38 26 -33 160 -27 174 8 7 19 23 18 38 -3
16 -22 164 -24 190 -3 12 10 43 11 139 6 122 -7 125 -6 140 16 9 12 16 31 16
41 0 10 8 29 17 43 22 35 21 99 -5 157 -20 45 -20 49 -5 85 21 46 24 218 6
278 -20 63 -86 158 -142 202 -98 78 -252 110 -368 77z m-54 -162 c34 -10 61
-27 76 -47 49 -63 54 -66 98 -66 23 0 52 -3 64 -6 l22 -6 -21 -18 -22 -17 28
-28 c18 -18 34 -25 47 -22 18 5 20 2 14 -21 -10 -43 -41 -68 -130 -106 -62
-27 -98 -36 -142 -37 -53 -1 -56 -1 -28 -11 39 -14 40 -15 28 -30 -17 -22 -21
-93 -8 -125 7 -16 27 -41 45 -55 l32 -25 -45 -32 c-33 -22 -47 -39 -49 -59 -2
-16 -8 -26 -17 -24 -7 1 -19 -2 -27 -8 -19 -17 -54 -2 -55 23 -2 21 -2 21 -6
-1 -6 -30 -37 -25 -41 6 -2 16 13 45 48 89 36 47 50 74 48 92 -4 37 -28 39
-28 3 0 -20 -14 -46 -42 -81 -41 -50 -45 -52 -83 -46 -21 3 -41 8 -43 10 -2 1
4 24 12 49 18 52 21 102 7 111 -5 3 -15 -21 -21 -52 -14 -64 -41 -125 -47
-105 -8 23 -20 12 -15 -16 5 -38 -24 -65 -43 -39 -12 16 -13 16 -18 -3 -7 -26
-31 -25 -58 3 l-22 22 6 -23 c3 -15 1 -22 -6 -19 -7 2 -13 18 -15 35 -3 26 1
34 21 41 28 11 58 70 121 243 l17 47 37 -16 c47 -19 129 -13 165 13 38 28 48
63 36 131 -6 32 -13 75 -16 96 -6 36 -16 47 -28 27 -3 -5 2 -45 11 -89 19 -90
14 -124 -22 -148 -55 -36 -175 -8 -204 47 -19 35 -11 103 19 165 34 72 62 100
127 125 61 24 107 25 173 3z m375 -325 c1 -51 0 -53 -24 -50 l-25 3 24 -20 25
-19 -25 -4 c-42 -6 -16 -23 36 -23 l50 0 -3 -34 c-3 -47 -30 -88 -66 -102
l-31 -13 29 -4 c21 -2 36 4 56 23 26 25 29 25 33 8 3 -10 5 17 6 60 1 79 1 79
-29 90 -35 13 -41 32 -7 22 32 -10 67 -36 100 -78 50 -62 48 -185 -2 -157 -10
5 -48 6 -87 2 l-69 -7 3 -42 4 -43 -56 0 c-48 0 -56 3 -56 19 0 10 -7 24 -15
31 -21 18 -19 30 8 31 12 0 -7 7 -43 15 -89 19 -116 31 -146 67 -31 37 -30 80
4 85 24 4 28 12 11 29 -15 15 103 80 167 92 28 5 53 17 59 26 47 79 66 77 69
-7z m146 -339 c10 -23 10 -32 0 -44 -19 -23 -30 -18 -31 13 l-2 27 -4 -27 c-3
-22 -10 -28 -29 -28 -16 0 -24 6 -25 18 0 10 -3 12 -6 5 -9 -24 -30 -13 -37
18 -3 17 -4 34 -1 39 2 4 31 8 64 8 56 1 60 -1 71 -29z m-289 -10 c12 -19 7
-51 -8 -57 -8 -2 -13 6 -13 20 l0 23 -13 -25 c-7 -14 -23 -26 -35 -28 -18 -3
-22 2 -23 25 0 27 0 27 -10 5 -13 -35 -43 -25 -47 16 -3 25 1 34 18 40 30 11
120 -2 131 -19z"/>
<path d="M1706 1749 c-23 -18 -36 -49 -20 -49 15 0 84 47 84 58 0 19 -34 14
-64 -9z"/>
<path d="M1875 1441 c-3 -5 4 -12 15 -16 11 -3 23 -17 26 -31 8 -31 24 -31 24
0 0 40 -48 74 -65 47z"/>
<path d="M2633 1994 c-38 -19 -49 -44 -32 -76 24 -46 67 -51 105 -13 29 29 26
58 -8 88 -24 21 -25 21 -65 1z m66 -32 c11 -21 4 -35 -26 -51 -30 -16 -41 -14
-53 9 -8 15 -6 24 10 40 25 25 56 26 69 2z"/>
<path d="M865 1930 c-7 -12 101 -63 115 -55 12 7 30 65 21 65 -5 0 -15 -10
-23 -21 l-14 -22 -42 22 c-48 24 -49 24 -57 11z"/>
<path d="M2770 1503 c-53 -14 -74 -29 -64 -44 4 -7 111 -59 120 -59 2 0 4 7 4
15 0 8 -7 15 -15 15 -24 0 -19 51 5 57 11 3 20 12 20 19 0 16 1 16 -70 -3z
m10 -38 c0 -16 -9 -19 -35 -9 -13 5 -14 8 -3 15 20 13 38 11 38 -6z"/>
<path d="M788 1503 c-10 -2 -18 -9 -18 -14 0 -6 19 -8 48 -4 l47 5 -42 -22
c-56 -29 -55 -45 3 -54 51 -7 42 -24 -13 -24 -18 0 -33 -4 -33 -10 0 -11 37
-13 93 -4 55 10 45 35 -18 49 l-50 12 48 22 c26 12 47 28 47 36 0 11 -12 15
-47 14 -27 -1 -56 -3 -65 -6z"/>
<path d="M2686 1341 c-4 -6 5 -13 21 -17 47 -10 62 -14 83 -20 13 -3 20 -1 20
9 0 9 -14 17 -37 22 -21 3 -48 9 -59 11 -12 3 -25 1 -28 -5z"/>
<path d="M858 1292 c-27 -8 -48 -19 -48 -23 0 -18 20 -59 30 -59 6 0 6 9 0 24
-7 20 -5 25 10 29 13 3 21 -1 25 -14 9 -28 26 -23 19 6 -8 31 21 36 31 5 10
-31 26 -24 19 8 -12 49 -12 49 -86 24z"/>
<path d="M2647 1216 l-16 -34 60 -22 c33 -13 63 -20 67 -16 6 7 -10 21 -32 29
-17 6 5 27 29 27 12 0 25 6 28 13 4 10 -3 12 -25 9 -21 -3 -34 0 -40 12 -16
29 -53 19 -71 -18z m53 -12 c0 -14 -21 -19 -33 -7 -9 9 13 34 24 27 5 -3 9
-12 9 -20z"/>
<path d="M913 1152 l-53 -27 19 -32 c26 -42 56 -51 90 -25 14 10 28 27 29 36
4 19 -17 76 -27 76 -3 -1 -30 -13 -58 -28z m65 -26 c8 -40 -51 -63 -78 -31
-15 18 -15 17 25 38 35 19 49 17 53 -7z"/>
<path d="M2555 1120 c-3 -5 -1 -18 4 -27 9 -16 10 -14 11 10 0 28 -5 34 -15
17z"/>
<path d="M2580 1073 c1 -23 76 -110 86 -100 5 4 3 16 -3 25 -13 21 5 52 30 52
38 0 23 19 -23 29 -72 15 -90 14 -90 -6z m60 -13 c10 -6 12 -12 4 -20 -7 -7
-16 -5 -29 10 -14 15 -15 20 -4 20 8 0 21 -5 29 -10z"/>
<path d="M1003 998 c-64 -47 -54 -65 12 -22 30 20 52 40 49 45 -8 14 -16 11
-61 -23z"/>
<path d="M2510 971 c0 -5 15 -21 33 -36 l32 -27 -50 7 c-27 4 -54 8 -59 8 -6
1 -11 -5 -13 -13 -4 -17 84 -96 95 -85 4 4 -11 23 -33 42 -35 31 -37 35 -15
30 118 -27 137 -14 69 45 -45 38 -59 45 -59 29z"/>
<path d="M1066 919 c-29 -23 -34 -60 -10 -83 22 -23 40 -20 20 3 -23 25 -13
58 21 74 22 10 28 8 43 -11 23 -28 35 -13 14 16 -19 28 -54 28 -88 1z"/>
<path d="M1186 806 c-35 -43 -45 -66 -28 -66 7 0 25 21 70 82 7 9 8 19 3 22
-5 3 -25 -14 -45 -38z"/>
<path d="M2380 838 c1 -20 77 -102 84 -90 3 6 -10 30 -30 54 -39 47 -54 57
-54 36z"/>
<path d="M2867 813 c-13 -12 -7 -41 10 -47 21 -9 46 16 37 37 -6 17 -35 23
-47 10z"/>
<path d="M1284 773 c-5 -10 -20 -35 -33 -55 -16 -27 -19 -38 -9 -38 7 0 23 17
35 38 l22 37 1 -56 c0 -66 20 -85 45 -44 8 14 22 36 30 50 9 14 13 30 9 36 -3
6 -18 -8 -33 -33 l-26 -43 -5 59 c-5 62 -18 79 -36 49z"/>
<path d="M2263 767 l-22 -12 30 -53 c30 -51 49 -66 49 -38 0 8 -5 18 -10 21
-20 12 1 24 26 15 43 -17 62 -11 26 8 -18 10 -30 21 -26 24 3 4 3 16 -1 27 -7
24 -38 27 -72 8z m51 -15 c2 -4 1 -14 -4 -22 -7 -11 -11 -11 -24 -1 -9 7 -13
17 -10 22 7 11 31 12 38 1z"/>
<path d="M2145 708 c-11 -6 -21 -12 -23 -13 -2 -1 36 -102 43 -113 1 -1 16 3
33 9 37 13 44 34 8 25 -30 -7 -45 12 -23 29 23 17 21 25 -4 22 -29 -3 -37 23
-10 30 23 6 29 23 9 23 -7 0 -22 -6 -33 -12z"/>
<path d="M1442 645 c-25 -32 -37 -55 -30 -55 8 0 18 4 24 10 15 15 54 0 54
-21 0 -11 7 -19 15 -19 22 0 22 125 -1 134 -9 3 -16 6 -17 6 -1 0 -22 -25 -45
-55z m58 5 c0 -20 -25 -38 -37 -26 -5 5 24 46 34 46 1 0 3 -9 3 -20z"/>
<path d="M2013 667 c-44 -10 -59 -27 -23 -27 14 0 22 -11 29 -37 6 -21 11 -44
11 -50 0 -7 7 -13 15 -13 8 0 15 1 15 3 0 1 -6 25 -14 53 -13 50 -13 52 7 61
32 15 7 20 -40 10z"/>
<path d="M1684 623 c21 -84 28 -103 41 -103 17 0 18 2 44 68 26 65 8 69 -21 5
-12 -27 -23 -43 -24 -38 -2 6 -8 29 -14 53 -6 23 -16 42 -21 42 -7 0 -9 -10
-5 -27z"/>
<path d="M1883 643 c-30 -4 -33 -8 -33 -37 0 -19 3 -47 6 -63 5 -26 9 -28 40
-25 39 5 46 22 9 22 -32 0 -33 26 -2 36 l22 8 -25 6 c-31 7 -33 34 -2 38 12 2
22 8 22 13 0 5 -1 8 -2 7 -2 0 -18 -3 -35 -5z"/>
<path d="M2720 625 c-11 -13 -11 -18 2 -31 20 -20 50 -7 46 20 -4 26 -30 32
-48 11z"/>
<path d="M2551 480 c-20 -12 -8 -45 17 -48 18 -3 22 1 22 21 0 27 -19 40 -39
27z"/>
<path d="M2352 361 c-20 -12 -10 -46 13 -46 14 0 20 7 20 24 0 27 -13 35 -33
22z"/>
</g>
</svg>
